<?xml version="1.0" encoding="UTF-8"?>
<svg version="1.1" xmlns="http://www.w3.org/2000/svg" width="500" height="500">
<path d="M0 0 C1.38832031 0.94939453 1.38832031 0.94939453 2.8046875 1.91796875 C10.02200912 6.99101366 16.66634582 12.70085374 23.28710938 18.51660156 C24.50421701 19.57064175 25.73640893 20.6073738 26.97851562 21.63183594 C27.61982422 22.16325195 28.26113281 22.69466797 28.921875 23.2421875 C29.5106543 23.72284668 30.09943359 24.20350586 30.70605469 24.69873047 C32 26 32 26 32 28 C32.66 28 33.32 28 34 28 C35.45659977 29.61382948 36.84048951 31.29363216 38.1875 33 C40.88141786 36.37706449 43.58182547 39.6902943 46.5 42.875 C51.20042183 48.19561637 55.05705503 54.11384739 59 60 C59.57492187 60.81597656 60.14984375 61.63195312 60.7421875 62.47265625 C90.36315278 106.05374153 99.34929387 164.28769577 89.78076172 215.46923828 C82.09133708 254.31443349 64.3633945 290.75590299 37.16015625 319.68359375 C35.36326752 321.61045635 33.70593296 323.56953827 32.0625 325.625 C28.74095553 329.55816031 24.72791559 332.6232856 20.7109375 335.81640625 C18.46885473 337.622349 16.35818653 339.48121337 14.25 341.4375 C8.89076732 346.19632072 2.77031994 349.96905327 -3.23925781 353.84521484 C-4.4022261 354.60794917 -5.55316411 355.38938791 -6.69042969 356.18994141 C-10.69491758 359 -10.69491758 359 -14 359 C-14 359.66 -14 360.32 -14 361 C-50.85490443 379.46319402 -86.66248813 388.85569833 -128 388 C-128.69174316 387.98743164 -129.38348633 387.97486328 -130.09619141 387.96191406 C-175.11031138 386.91033271 -217.1061388 368.22067071 -252.36523438 341.2175293 C-253.8735763 340.09415695 -255.43515675 339.04322883 -257 338 C-257 337.34 -257 336.68 -257 336 C-257.53625 335.773125 -258.0725 335.54625 -258.625 335.3125 C-261.82460161 333.54429911 -264.29037223 331.46329797 -267 329 C-267 328.34 -267 327.68 -267 327 C-267.66 327 -268.32 327 -269 327 C-270.41015625 325.6015625 -270.41015625 325.6015625 -272.0625 323.625 C-274.01409446 321.31601478 -275.96347043 319.03869895 -278.0390625 316.83984375 C-284.72314387 309.75471749 -290.21588713 301.96054144 -295.68408203 293.92724609 C-296.75156599 292.36384752 -297.83954692 290.81445799 -298.93359375 289.26953125 C-323.51341188 253.13660915 -331.83170037 208.87680857 -331 166 C-330.98743164 165.30938477 -330.97486328 164.61876953 -330.96191406 163.90722656 C-329.91735432 121.08027715 -312.22366559 79.97264494 -287 46 C-286.41605469 45.1853125 -285.83210938 44.370625 -285.23046875 43.53125 C-284.43576172 42.43296875 -284.43576172 42.43296875 -283.625 41.3125 C-283.16351563 40.66925781 -282.70203125 40.02601562 -282.2265625 39.36328125 C-281.82179688 38.91339844 -281.41703125 38.46351562 -281 38 C-280.34 38 -279.68 38 -279 38 C-278.773125 37.46375 -278.54625 36.9275 -278.3125 36.375 C-276.54429911 33.17539839 -274.46329797 30.70962777 -272 28 C-271.34 28 -270.68 28 -270 28 C-269.67 27.01 -269.34 26.02 -269 25 C-268.34 25 -267.68 25 -267 25 C-267 24.34 -267 23.68 -267 23 C-265.3203125 21.2734375 -265.3203125 21.2734375 -263.125 19.375 C-262.40570313 18.74335937 -261.68640625 18.11171875 -260.9453125 17.4609375 C-259 16 -259 16 -257 16 C-257 15.34 -257 14.68 -257 14 C-255.16158324 12.38451418 -253.32762892 10.90454277 -251.375 9.4375 C-250.79032959 8.99422363 -250.20565918 8.55094727 -249.60327148 8.09423828 C-243.29030579 3.37233158 -236.72673342 -0.89561649 -230 -5 C-228.91332031 -5.66773437 -227.82664062 -6.33546875 -226.70703125 -7.0234375 C-157.87223866 -47.85626874 -66.03837124 -46.19308065 0 0 Z M-63 88 C-63 88.66 -63 89.32 -63 90 C-63.66 90 -64.32 90 -65 90 C-66.53237551 91.55383147 -66.53237551 91.55383147 -68.125 93.5625 C-71.29312862 97.31756613 -74.69430236 100.45265657 -78.49609375 103.5546875 C-78.99238281 104.03164062 -79.48867188 104.50859375 -80 105 C-80 105.66 -80 106.32 -80 107 C-80.66 107 -81.32 107 -82 107 C-82 107.66 -82 108.32 -82 109 C-82.66 109 -83.32 109 -84 109 C-84 109.66 -84 110.32 -84 111 C-84.66 111 -85.32 111 -86 111 C-86 111.66 -86 112.32 -86 113 C-86.66 113 -87.32 113 -88 113 C-88 113.66 -88 114.32 -88 115 C-88.66 115 -89.32 115 -90 115 C-90 115.66 -90 116.32 -90 117 C-90.66 117 -91.32 117 -92 117 C-92 117.66 -92 118.32 -92 119 C-92.66 119 -93.32 119 -94 119 C-94 119.66 -94 120.32 -94 121 C-94.66 121 -95.32 121 -96 121 C-96 121.66 -96 122.32 -96 123 C-96.66 123 -97.32 123 -98 123 C-98 123.66 -98 124.32 -98 125 C-98.66 125 -99.32 125 -100 125 C-100 125.66 -100 126.32 -100 127 C-100.66 127 -101.32 127 -102 127 C-102 127.66 -102 128.32 -102 129 C-102.66 129 -103.32 129 -104 129 C-104 129.66 -104 130.32 -104 131 C-104.66 131 -105.32 131 -106 131 C-107.60059293 132.62092592 -107.60059293 132.62092592 -109.25 134.6875 C-112.27272634 138.25067222 -115.35890753 141.08712602 -119 144 C-121.31418291 146.06167261 -121.31418291 146.06167261 -123 148 C-123 148.66 -123 149.32 -123 150 C-123.66 150 -124.32 150 -125 150 C-125 150.66 -125 151.32 -125 152 C-125.66 152 -126.32 152 -127 152 C-127 152.66 -127 153.32 -127 154 C-127.66 154 -128.32 154 -129 154 C-129 154.66 -129 155.32 -129 156 C-129.66 156 -130.32 156 -131 156 C-131 156.66 -131 157.32 -131 158 C-131.66 158 -132.32 158 -133 158 C-133 158.66 -133 159.32 -133 160 C-133.66 160 -134.32 160 -135 160 C-135 160.66 -135 161.32 -135 162 C-135.66 162 -136.32 162 -137 162 C-137 162.66 -137 163.32 -137 164 C-137.66 164 -138.32 164 -139 164 C-139 164.66 -139 165.32 -139 166 C-139.66 166 -140.32 166 -141 166 C-141 166.66 -141 167.32 -141 168 C-141.66 168 -142.32 168 -143 168 C-143 168.66 -143 169.32 -143 170 C-143.66 170 -144.32 170 -145 170 C-145 170.66 -145 171.32 -145 172 C-145.66 172 -146.32 172 -147 172 C-149.7799958 176.66727743 -152.02600217 181.23267406 -154 186.3125 C-154.5126676 187.6303458 -155.02568933 188.9480539 -155.5390625 190.265625 C-155.9088623 191.21985352 -155.9088623 191.21985352 -156.28613281 192.19335938 C-157.26527288 194.67134724 -158.32817544 197.11248506 -159.375 199.5625 C-160.82117096 203.16292563 -161.50352783 206.07248296 -161 210 C-159.9175814 211.29557773 -159.9175814 211.29557773 -157.3203125 211.24609375 C-153.48933202 210.96215049 -151.2357586 209.88899924 -147.875 208.0625 C-141.58535565 204.67761506 -141.58535565 204.67761506 -138 204 C-138 203.34 -138 202.68 -138 202 C-137.34 201.9175 -136.68 201.835 -136 201.75 C-126.92177706 199.48044427 -121.31732133 193.88955606 -114.99707031 187.40869141 C-113.48616826 185.86082991 -111.95941434 184.33001998 -110.4296875 182.80078125 C-105.33772903 178.53607501 -105.33772903 178.53607501 -103 173 C-102.34 173 -101.68 173 -101 173 C-101 172.34 -101 171.68 -101 171 C-100.34 171 -99.68 171 -99 171 C-99 170.34 -99 169.68 -99 169 C-98.34 169 -97.68 169 -97 169 C-97 168.34 -97 167.68 -97 167 C-96.34 167 -95.68 167 -95 167 C-95 166.34 -95 165.68 -95 165 C-94.34 165 -93.68 165 -93 165 C-93 164.34 -93 163.68 -93 163 C-92.34 163 -91.68 163 -91 163 C-91 162.34 -91 161.68 -91 161 C-90.34 161 -89.68 161 -89 161 C-89 160.34 -89 159.68 -89 159 C-88.34 159 -87.68 159 -87 159 C-87 158.34 -87 157.68 -87 157 C-86.34 157 -85.68 157 -85 157 C-85 156.34 -85 155.68 -85 155 C-84.34 155 -83.68 155 -83 155 C-83 154.34 -83 153.68 -83 153 C-82.34 153 -81.68 153 -81 153 C-81 152.34 -81 151.68 -81 151 C-80.42475586 150.74927734 -79.84951172 150.49855469 -79.25683594 150.24023438 C-76.69558804 148.83271173 -74.95942608 147.21829975 -72.890625 145.15625 C-71.75947266 144.02896484 -71.75947266 144.02896484 -70.60546875 142.87890625 C-69.82816406 142.09386719 -69.05085938 141.30882812 -68.25 140.5 C-67.45722656 139.71496094 -66.66445313 138.92992187 -65.84765625 138.12109375 C-64.72423828 136.99380859 -64.72423828 136.99380859 -63.578125 135.84375 C-62.89137695 135.15474609 -62.20462891 134.46574219 -61.49707031 133.75585938 C-59.78373251 132.13092041 -59.78373251 132.13092041 -60 130 C-59.34 130 -58.68 130 -58 130 C-58 129.34 -58 128.68 -58 128 C-57.34 128 -56.68 128 -56 128 C-56 127.34 -56 126.68 -56 126 C-55.34 126 -54.68 126 -54 126 C-54 125.34 -54 124.68 -54 124 C-53.34 124 -52.68 124 -52 124 C-52 123.34 -52 122.68 -52 122 C-51.34 122 -50.68 122 -50 122 C-50 121.34 -50 120.68 -50 120 C-49.43667969 119.75378906 -48.87335938 119.50757813 -48.29296875 119.25390625 C-43.23902921 116.49016759 -38.14750885 112.0485321 -36.08984375 106.58203125 C-35.37085196 101.64826002 -36.09758808 99.12745591 -39 95 C-44.87569037 88.30135488 -44.87569037 88.30135488 -52.58203125 84.25 C-56.77437295 84.13876042 -60.10791553 84.73068712 -63 88 Z M-210.9375 110.5625 C-212.77411882 114.77591965 -213.12483903 118.78516837 -213.12025452 123.34675598 C-213.12163201 124.40320973 -213.12300951 125.45966349 -213.12442875 126.54813099 C-213.12083064 127.70118575 -213.11723253 128.85424051 -213.11352539 130.04223633 C-213.11364593 131.28186221 -213.11376646 132.52148809 -213.11389065 133.7986784 C-213.11326826 137.14447376 -213.1083303 140.49020678 -213.10128021 143.83599091 C-213.09557503 146.97834676 -213.09531653 150.12070111 -213.09460449 153.26306152 C-213.08936224 162.44621242 -213.07540104 171.62935667 -213.0625 180.8125 C-213.041875 201.334375 -213.02125 221.85625 -213 243 C-150.96 243 -88.92 243 -25 243 C-25 201.75 -25 160.5 -25 118 C-32.55623984 122.97380464 -32.55623984 122.97380464 -35 127 C-35.29428133 129.0584146 -35.29428133 129.0584146 -35.24050903 131.3469696 C-35.24326403 132.23273776 -35.24601902 133.11850592 -35.2488575 134.03111553 C-35.24166128 135.00399926 -35.23446507 135.97688299 -35.22705078 136.97924805 C-35.22741239 138.5409597 -35.22741239 138.5409597 -35.2277813 140.13422108 C-35.22628647 143.51014005 -35.21104578 146.8858392 -35.1953125 150.26171875 C-35.1923726 152.34362685 -35.19033183 154.42553642 -35.18920898 156.50744629 C-35.17871556 164.23415338 -35.15079323 171.96082884 -35.125 179.6875 C-35.08375 196.950625 -35.0425 214.21375 -35 232 C-90.44 232 -145.88 232 -203 232 C-202.87625 213.1075 -202.7525 194.215 -202.625 174.75 C-202.57400146 165.79891113 -202.57400146 165.79891113 -202.52197266 156.66699219 C-202.4675293 149.38525391 -202.4675293 149.38525391 -202.43954468 145.97735596 C-202.42184856 143.59505586 -202.40804808 141.21272491 -202.39730835 138.8303833 C-202.38029543 135.22370362 -202.3509583 131.61731478 -202.31884766 128.01074219 C-202.31667551 126.94777294 -202.31450336 125.8848037 -202.3122654 124.78962326 C-202.30111387 123.81851231 -202.28996235 122.84740135 -202.2784729 121.84686279 C-202.27294214 121.00250042 -202.26741138 120.15813805 -202.26171303 119.28818893 C-201.96981553 116.73609351 -201.42139125 115.13746575 -200 113 C-196.02665572 111.67555191 -192.20620072 111.83059215 -188.06225586 111.81054688 C-187.14819473 111.80225357 -186.23413361 111.79396027 -185.29237366 111.78541565 C-183.3067746 111.76801344 -181.32115499 111.75284709 -179.33552361 111.73963928 C-176.19681787 111.71862934 -173.05821568 111.69160622 -169.91957092 111.66296387 C-162.12553031 111.59309397 -154.33141611 111.53367862 -146.53729248 111.47393799 C-139.95083287 111.42306585 -133.36442926 111.36826211 -126.77804756 111.30812073 C-123.67919182 111.2814808 -120.58033103 111.2607073 -117.48143005 111.2401123 C-115.59040068 111.22351476 -113.69937369 111.2066434 -111.80834961 111.18945312 C-110.50775101 111.1831765 -110.50775101 111.1831765 -109.18087769 111.17677307 C-104.95580532 111.24844255 -104.95580532 111.24844255 -101 110 C-101 109.34 -101 108.68 -101 108 C-100.34 108 -99.68 108 -99 108 C-99 107.34 -99 106.68 -99 106 C-98.34 106 -97.68 106 -97 106 C-96.34 104.68 -95.68 103.36 -95 102 C-108.68238632 101.86086244 -122.3646038 101.75430828 -136.04755402 101.68912697 C-142.40142337 101.65784001 -148.75480802 101.61541338 -155.10839844 101.54736328 C-161.2422104 101.48207968 -167.37555671 101.44627413 -173.50968933 101.43073654 C-175.84766468 101.41966659 -178.18561509 101.3980492 -180.52339172 101.36561966 C-183.80326014 101.32193883 -187.08121474 101.31607106 -190.36132812 101.31884766 C-191.3237442 101.297276 -192.28616028 101.27570435 -193.27774048 101.253479 C-201.21513622 101.32598725 -206.1588514 104.24235185 -210.9375 110.5625 Z M-229 252 C-230.08960504 257.1521722 -229.72168631 259.42756699 -227 264 C-226.34 264 -225.68 264 -225 264 C-225 264.66 -225 265.32 -225 266 C-218.58855145 269.42937946 -213.44349357 270.14912067 -206.24615479 270.14044189 C-205.4723578 270.14341302 -204.69856082 270.14638414 -203.90131545 270.1494453 C-201.31212897 270.15810699 -198.72298887 270.1596384 -196.13378906 270.16113281 C-194.27575584 270.16576277 -192.41772356 270.17078767 -190.55969238 270.17617798 C-185.51409089 270.18928671 -180.4685027 270.19574394 -175.42288685 270.20018864 C-172.26908248 270.20312178 -169.11528173 270.20722705 -165.96147919 270.21169281 C-156.08953565 270.22536363 -146.2176004 270.23503236 -136.34564805 270.2388947 C-124.95809382 270.24337477 -113.57065967 270.26092208 -102.18314195 270.2898953 C-93.37532756 270.31152551 -84.56754692 270.3215997 -75.75970626 270.32293582 C-70.50174704 270.32398287 -65.24390075 270.3298695 -59.98596954 270.34775543 C-55.03817859 270.36425927 -50.09058519 270.36638036 -45.14277649 270.35761642 C-43.3308077 270.3568473 -41.51882819 270.36117235 -39.70688629 270.37107468 C-30.1128276 270.42041532 -21.78667351 270.39333675 -13 266 C-13 265.34 -13 264.68 -13 264 C-12.34 264 -11.68 264 -11 264 C-9.15412336 261.92798943 -9.15412336 261.92798943 -8 259 C-8.33 256.69 -8.66 254.38 -9 252 C-33.09 252 -57.18 252 -82 252 C-82.99 254.31 -83.98 256.62 -85 259 C-107.44 259 -129.88 259 -153 259 C-153.99 256.03 -153.99 256.03 -155 253 C-157.94246727 251.52876636 -160.55185022 251.88075235 -163.83642578 251.88647461 C-164.89024948 251.88625557 -164.89024948 251.88625557 -165.96536255 251.8860321 C-168.29204373 251.88672986 -170.61864527 251.89451581 -172.9453125 251.90234375 C-174.55671139 251.90420842 -176.16811084 251.90563209 -177.7795105 251.90663147 C-182.02428752 251.9104528 -186.26903042 251.92027982 -190.51379395 251.93133545 C-194.84382668 251.94155782 -199.17386493 251.94613086 -203.50390625 251.95117188 C-212.00261984 251.96190242 -220.50130568 251.97897425 -229 252 Z " fill="#2B2B2B" transform="translate(369,74)"/>
<path d="M0 0 C0.99 0.33 1.98 0.66 3 1 C3 1.66 3 2.32 3 3 C3.61875 3.28875 4.2375 3.5775 4.875 3.875 C7 5 7 5 9 7 C8.76214127 11.34632771 7.13686026 13.36044702 4.0625 16.3125 C3.35222656 17.00988281 2.64195312 17.70726562 1.91015625 18.42578125 C0 20 0 20 -2 20 C-2 20.66 -2 21.32 -2 22 C-2.66 22 -3.32 22 -4 22 C-4.38671875 22.87398437 -4.38671875 22.87398437 -4.78125 23.765625 C-6.09834017 26.1802903 -7.55088384 27.81740177 -9.5 29.75 C-10.41265625 30.67039063 -10.41265625 30.67039063 -11.34375 31.609375 C-13 33 -13 33 -15 33 C-15 33.66 -15 34.32 -15 35 C-15.66 35 -16.32 35 -17 35 C-17 35.66 -17 36.32 -17 37 C-17.66 37 -18.32 37 -19 37 C-19.226875 37.556875 -19.45375 38.11375 -19.6875 38.6875 C-21.37550036 41.66159588 -23.46676517 43.72008865 -26 46 C-26.66 46 -27.32 46 -28 46 C-28 46.66 -28 47.32 -28 48 C-28.66 48 -29.32 48 -30 48 C-30 48.66 -30 49.32 -30 50 C-30.66 50 -31.32 50 -32 50 C-32.38671875 50.87398437 -32.38671875 50.87398437 -32.78125 51.765625 C-34.09834017 54.1802903 -35.55088384 55.81740177 -37.5 57.75 C-38.41265625 58.67039062 -38.41265625 58.67039062 -39.34375 59.609375 C-41 61 -41 61 -43 61 C-43 61.66 -43 62.32 -43 63 C-43.66 63 -44.32 63 -45 63 C-45.20625 63.53625 -45.4125 64.0725 -45.625 64.625 C-47.5056462 67.87338889 -49.83807678 70.91978735 -53 73 C-56.61865714 72.79816255 -58.3374782 70.98920575 -60.75 68.4375 C-61.36359375 67.79683594 -61.9771875 67.15617187 -62.609375 66.49609375 C-63.06828125 66.00238281 -63.5271875 65.50867188 -64 65 C-63.34 63.68 -62.68 62.36 -62 61 C-61.34 61 -60.68 61 -60 61 C-60 60.34 -60 59.68 -60 59 C-59.34 59 -58.68 59 -58 59 C-57.773125 58.443125 -57.54625 57.88625 -57.3125 57.3125 C-55.62449964 54.33840412 -53.53323483 52.27991135 -51 50 C-50.34 50 -49.68 50 -49 50 C-49 49.34 -49 48.68 -49 48 C-48.34 48 -47.68 48 -47 48 C-47 47.34 -47 46.68 -47 46 C-46.34 46 -45.68 46 -45 46 C-45 45.34 -45 44.68 -45 44 C-44.34 44 -43.68 44 -43 44 C-43 43.34 -43 42.68 -43 42 C-42.34 42 -41.68 42 -41 42 C-41 41.34 -41 40.68 -41 40 C-40.34 40 -39.68 40 -39 40 C-39 39.34 -39 38.68 -39 38 C-36.625 35.375 -36.625 35.375 -34 33 C-33.34 33 -32.68 33 -32 33 C-32 32.34 -32 31.68 -32 31 C-31.34 31 -30.68 31 -30 31 C-29.731875 30.401875 -29.46375 29.80375 -29.1875 29.1875 C-28.00082594 27.00152146 -26.90400887 25.58667406 -25 24 C-24.34 24 -23.68 24 -23 24 C-23 23.34 -23 22.68 -23 22 C-22.34 22 -21.68 22 -21 22 C-21 21.34 -21 20.68 -21 20 C-20.34 20 -19.68 20 -19 20 C-19 19.34 -19 18.68 -19 18 C-18.34 18 -17.68 18 -17 18 C-16.773125 17.443125 -16.54625 16.88625 -16.3125 16.3125 C-14.62449964 13.33840412 -12.53323483 11.27991135 -10 9 C-9.34 9 -8.68 9 -8 9 C-8 8.34 -8 7.68 -8 7 C-7.34 7 -6.68 7 -6 7 C-6 6.34 -6 5.68 -6 5 C-5.34 5 -4.68 5 -4 5 C-4 4.34 -4 3.68 -4 3 C-3.34 3 -2.68 3 -2 3 C-2 2.34 -2 1.68 -2 1 C-1.34 0.67 -0.68 0.34 0 0 Z " fill="#3B3B3B" transform="translate(295,187)"/>
<path d="M0 0 C0.66 0 1.32 0 2 0 C0.87548273 2.9719385 -0.22293791 5.33440687 -2 8 C-0.35 7.67 1.3 7.34 3 7 C3.33 7.66 3.66 8.32 4 9 C5.64363134 9.72159424 7.31050386 10.39351421 9 11 C8.67 11.66 8.34 12.32 8 13 C7.34 13 6.68 13 6 13 C6 13.66 6 14.32 6 15 C5.34 15 4.68 15 4 15 C3.690625 15.804375 3.690625 15.804375 3.375 16.625 C1.4943538 19.87338889 -0.83807678 22.91978735 -4 25 C-7.61865714 24.79816255 -9.3374782 22.98920575 -11.75 20.4375 C-12.67039063 19.47650391 -12.67039063 19.47650391 -13.609375 18.49609375 C-14.06828125 18.00238281 -14.5271875 17.50867188 -15 17 C-14.34 15.68 -13.68 14.36 -13 13 C-12.34 13 -11.68 13 -11 13 C-11 12.34 -11 11.68 -11 11 C-10.34 11 -9.68 11 -9 11 C-8.773125 10.443125 -8.54625 9.88625 -8.3125 9.3125 C-6.62449964 6.33840412 -4.53323483 4.27991135 -2 2 C-1.34 2 -0.68 2 0 2 C0 1.34 0 0.68 0 0 Z " fill="#393938" transform="translate(246,235)"/>
<path d="M0 0 C3.4381547 1.46304455 5.90201655 3.79667208 8.01953125 6.859375 C7.89453125 9.734375 7.89453125 9.734375 7.01953125 11.859375 C6.02953125 12.189375 5.03953125 12.519375 4.01953125 12.859375 C3.334664 14.18345169 2.67082922 15.51846741 2.01953125 16.859375 C0.08203125 19.109375 0.08203125 19.109375 -1.98046875 20.859375 C-2.97046875 20.859375 -3.96046875 20.859375 -4.98046875 20.859375 C-4.98046875 20.199375 -4.98046875 19.539375 -4.98046875 18.859375 C-6.30046875 18.199375 -7.62046875 17.539375 -8.98046875 16.859375 C-8.98046875 16.199375 -8.98046875 15.539375 -8.98046875 14.859375 C-9.64046875 14.859375 -10.30046875 14.859375 -10.98046875 14.859375 C-11.68359375 13.11328125 -11.68359375 13.11328125 -11.98046875 10.859375 C-10.65234375 8.82421875 -10.65234375 8.82421875 -8.73046875 6.796875 C-8.1065625 6.12527344 -7.48265625 5.45367187 -6.83984375 4.76171875 C-6.22625 4.13394531 -5.61265625 3.50617188 -4.98046875 2.859375 C-4.24570312 1.96412109 -4.24570312 1.96412109 -3.49609375 1.05078125 C-1.98046875 -0.140625 -1.98046875 -0.140625 0 0 Z " fill="#383838" transform="translate(314.98046875,168.140625)"/>
<path d="M0 0 C0.99 0 1.98 0 3 0 C3 41.91 3 83.82 3 127 C2.67 127 2.34 127 2 127 C1.67 86.08 1.34 45.16 1 3 C0.01 3.495 0.01 3.495 -1 4 C-0.67 2.68 -0.34 1.36 0 0 Z " fill="#6F6F6F" transform="translate(342,190)"/>
<path d="M0 0 C25.41 0 50.82 0 77 0 C77 0.33 77 0.66 77 1 C52.91 1.33 28.82 1.66 4 2 C3.67 3.65 3.34 5.3 3 7 C2.67 5.68 2.34 4.36 2 3 C1.34 3 0.68 3 0 3 C0 2.01 0 1.02 0 0 Z " fill="#8C898A" transform="translate(283,325)"/>
<path d="M0 0 C2.47156298 1.08707749 3.43975185 2.59138099 4.8828125 4.828125 C2.54947917 4.828125 0.21614583 4.828125 -2.1171875 4.828125 C-3.93422093 6.13855511 -3.93422093 6.13855511 -5.6796875 7.828125 C-8.90885417 10.828125 -8.90885417 10.828125 -11.1171875 10.828125 C-9.7267376 7.72370469 -8.10147152 5.4624807 -5.7421875 3.015625 C-5.15695312 2.39042969 -4.57171875 1.76523438 -3.96875 1.12109375 C-2.1171875 -0.171875 -2.1171875 -0.171875 0 0 Z " fill="#626263" transform="translate(315.1171875,168.171875)"/>
<path d="M0 0 C0.99 0 1.98 0 3 0 C3 0.66 3 1.32 3 2 C3.99 2.33 4.98 2.66 6 3 C6 3.99 6 4.98 6 6 C3.35261084 7.4606285 2.10551666 8 -1 8 C-1 8.66 -1 9.32 -1 10 C-1.66 10 -2.32 10 -3 10 C-2.25 3.375 -2.25 3.375 0 0 Z " fill="#5D5C5C" transform="translate(225,261)"/>
<path d="M0 0 C2 1 2 1 4 4 C3.649375 4.61875 3.29875 5.2375 2.9375 5.875 C2.4734375 6.926875 2.4734375 6.926875 2 8 C2.33 8.66 2.66 9.32 3 10 C2.01 10.33 1.02 10.66 0 11 C-0.33 10.34 -0.66 9.68 -1 9 C-2.32 9 -3.64 9 -5 9 C-4.5206753 4.68607774 -3.2542015 2.83430453 0 0 Z " fill="#252527" transform="translate(249,234)"/>
<path d="M0 0 C0.66 0 1.32 0 2 0 C2.33 0.99 2.66 1.98 3 3 C1.69013727 4.16962686 0.3770374 5.33562944 -0.9375 6.5 C-1.66839844 7.1496875 -2.39929688 7.799375 -3.15234375 8.46875 C-5 10 -5 10 -6 10 C-5.6875 6.625 -5.6875 6.625 -5 3 C-2 1 -2 1 0 1 C0 0.67 0 0.34 0 0 Z " fill="#444243" transform="translate(400,395)"/>
<path d="M0 0 C0.33 0.99 0.66 1.98 1 3 C0.195625 3.763125 -0.60875 4.52625 -1.4375 5.3125 C-4.16799024 7.79430898 -4.16799024 7.79430898 -5 11 C-6.65 11 -8.3 11 -10 11 C-10 10.34 -10 9.68 -10 9 C-9.34 9 -8.68 9 -8 9 C-8 8.34 -8 7.68 -8 7 C-7.34 7 -6.68 7 -6 7 C-6 6.34 -6 5.68 -6 5 C-5.34 5 -4.68 5 -4 5 C-4 4.34 -4 3.68 -4 3 C-2 1.375 -2 1.375 0 0 Z " fill="#5F5F5F" transform="translate(292,222)"/>
<path d="M0 0 C1.32 0.66 2.64 1.32 4 2 C3.01 2.66 2.02 3.32 1 4 C0.05833984 4.76376953 0.05833984 4.76376953 -0.90234375 5.54296875 C-1.57394531 6.08566406 -2.24554688 6.62835938 -2.9375 7.1875 C-3.60652344 7.73792969 -4.27554688 8.28835938 -4.96484375 8.85546875 C-7 10 -7 10 -9.25390625 9.67578125 C-9.83011719 9.45277344 -10.40632812 9.22976563 -11 9 C-10.29875 8.62875 -9.5975 8.2575 -8.875 7.875 C-5.38973488 5.60200101 -2.87223102 3.00582316 0 0 Z " fill="#545455" transform="translate(251,263)"/>
<path d="M0 0 C0.99 0 1.98 0 3 0 C2.82374165 2.37948772 2.30280227 3.70225849 0.59765625 5.37890625 C-0.90649092 6.62115486 -2.45129851 7.81376056 -4 9 C-4 7.35 -4 5.7 -4 4 C-2.68 3.34 -1.36 2.68 0 2 C0 1.34 0 0.68 0 0 Z " fill="#5C5C5C" transform="translate(287,209)"/>
<path d="M0 0 C0.33 0.99 0.66 1.98 1 3 C0.01 3.33 -0.98 3.66 -2 4 C-2 4.66 -2 5.32 -2 6 C-2.66 6 -3.32 6 -4 6 C-4 6.66 -4 7.32 -4 8 C-3.34 8 -2.68 8 -2 8 C-1.67 8.99 -1.34 9.98 -1 11 C-1.99 11.33 -2.98 11.66 -4 12 C-4.99 10.68 -5.98 9.36 -7 8 C-6.34 7.01 -5.68 6.02 -5 5 C-4.34 5 -3.68 5 -3 5 C-3 4.34 -3 3.68 -3 3 C-2.34 3 -1.68 3 -1 3 C-0.67 2.01 -0.34 1.02 0 0 Z " fill="#676767" transform="translate(238,243)"/>
<path d="M0 0 C0.66 0 1.32 0 2 0 C3.33454536 2.1980747 4.02787435 3.52613603 3.875 6.125 C2.73160273 8.575137 1.46882406 9.04432617 -1 10 C-1 10.66 -1 11.32 -1 12 C-1.99 11.67 -2.98 11.34 -4 11 C-3.34 11 -2.68 11 -2 11 C-0.19769832 7.17010894 0.19622241 4.21878192 0 0 Z " fill="#707070" transform="translate(360,327)"/>
<path d="M0 0 C0.66 0.33 1.32 0.66 2 1 C1.29666462 3.97722547 0.41751463 6.85256543 -0.5625 9.75 C-0.96662109 10.94882812 -0.96662109 10.94882812 -1.37890625 12.171875 C-1.58386719 12.77515625 -1.78882813 13.3784375 -2 14 C-4 11 -4 11 -4 9 C-3.34 8.67 -2.68 8.34 -2 8 C-2.04125 7.05125 -2.0825 6.1025 -2.125 5.125 C-2 2 -2 2 0 0 Z " fill="#676767" transform="translate(211,264)"/>
<path d="M0 0 C1.95216435 3.90432869 2.50639991 6.72213252 3 11 C2.67 10.01 2.34 9.02 2 8 C0.35 8.33 -1.3 8.66 -3 9 C-2.01 6.03 -1.02 3.06 0 0 Z " fill="#625F5F" transform="translate(453,190)"/>
<path d="M0 0 C0.66 0 1.32 0 2 0 C-0.10714286 5.99725275 -0.10714286 5.99725275 -3 8 C-5.1875 7.6875 -5.1875 7.6875 -7 7 C-5.37660195 5.29115995 -3.70680947 3.62553283 -2 2 C-1.34 2 -0.68 2 0 2 C0 1.34 0 0.68 0 0 Z " fill="#78787A" transform="translate(246,235)"/>
<path d="M0 0 C0.66 0.33 1.32 0.66 2 1 C0.35 2.65 -1.3 4.3 -3 6 C-3.66 5.67 -4.32 5.34 -5 5 C-5 4.01 -5 3.02 -5 2 C-2.625 0.9375 -2.625 0.9375 0 0 Z " fill="#4E4E4E" transform="translate(178,50)"/>
<path d="M0 0 C1.32 0.33 2.64 0.66 4 1 C3.25 5.75 3.25 5.75 1 8 C0.67 5.36 0.34 2.72 0 0 Z " fill="#585657" transform="translate(43,294)"/>
<path d="M0 0 C0 0.66 0 1.32 0 2 C-2.97 3.65 -5.94 5.3 -9 7 C-9 5 -9 5 -6.75 2.375 C-4 0 -4 0 0 0 Z " fill="#4D4D4C" transform="translate(265,220)"/>
<path d="M0 0 C0.33 0.99 0.66 1.98 1 3 C0.34 3 -0.32 3 -1 3 C-1.12375 3.61875 -1.2475 4.2375 -1.375 4.875 C-2 7 -2 7 -4 9 C-4.99 8.67 -5.98 8.34 -7 8 C-5.38405168 5.95880212 -3.7143618 3.95927063 -2 2 C-1.34 2 -0.68 2 0 2 C0 1.34 0 0.68 0 0 Z " fill="#5E5E5E" transform="translate(311,202)"/>
<path d="M0 0 C0.66 0.66 1.32 1.32 2 2 C1.625 4.125 1.625 4.125 1 6 C-0.32 6.33 -1.64 6.66 -3 7 C-3 6.34 -3 5.68 -3 5 C-3.66 4.67 -4.32 4.34 -5 4 C-3.35 4 -1.7 4 0 4 C0 2.68 0 1.36 0 0 Z " fill="#696968" transform="translate(313,182)"/>
<path d="M0 0 C0.99 0.33 1.98 0.66 3 1 C3.0270043 2.45823212 3.04639787 3.91660675 3.0625 5.375 C3.07410156 6.18710938 3.08570313 6.99921875 3.09765625 7.8359375 C3 10 3 10 2 12 C1.34 12 0.68 12 0 12 C0 8.04 0 4.08 0 0 Z " fill="#676667" transform="translate(332,171)"/>
<path d="M0 0 C1.32 0.66 2.64 1.32 4 2 C1.03 4.475 1.03 4.475 -2 7 C-2 5.35 -2 3.7 -2 2 C-1.34 2 -0.68 2 0 2 C0 1.34 0 0.68 0 0 Z " fill="#7F7F7F" transform="translate(294,170)"/>
<path d="M0 0 C0.99 0.66 1.98 1.32 3 2 C1.625 3.5 1.625 3.5 0 5 C-0.66 5 -1.32 5 -2 5 C-2.33 5.66 -2.66 6.32 -3 7 C-2.25 2.25 -2.25 2.25 0 0 Z " fill="#60605D" transform="translate(338,193)"/>
</svg>
